<svg xmlns="http://www.w3.org/2000/svg" viewBox="0 0 297 297"><path d="M119.306 51.203l-1.612 21.974a4.97 4.97 0 002.037 4.387 4.97 4.97 0 004.801.582l20.401-8.325 20.401 8.325a4.973 4.973 0 006.838-4.969l-1.612-21.974 14.221-16.831a4.971 4.971 0 00-2.612-8.038l-21.397-5.257-11.614-18.725a4.972 4.972 0 00-8.451 0l-11.611 18.725-21.399 5.257a4.971 4.971 0 00-2.612 8.038l14.221 16.831zm169.426 126.699h-71.919V97.219a6.962 6.962 0 00-6.962-6.962H87.148a6.962 6.962 0 00-6.962 6.962v45.625H8.268a6.962 6.962 0 00-6.962 6.962v140.232A6.962 6.962 0 008.268 297h280.465a6.962 6.962 0 006.962-6.962V184.864a6.964 6.964 0 00-6.963-6.962zM74.799 239.825a7.458 7.458 0 01-7.459 7.459H54.252v6.969H67.34a7.458 7.458 0 017.459 7.459 7.458 7.458 0 01-7.459 7.459H46.793a7.458 7.458 0 01-7.459-7.459v-21.887a7.458 7.458 0 017.459-7.459h13.088v-7.415H46.793c-4.12 0-7.459-3.339-7.459-7.459s3.339-7.459 7.459-7.459H67.34a7.458 7.458 0 017.459 7.459v22.333zm81.16-73.793c0 4.12-3.339 7.459-7.459 7.459s-7.459-3.339-7.459-7.459v-24.274h-1.676a7.458 7.458 0 01-7.459-7.459 7.458 7.458 0 017.459-7.459h9.135a7.458 7.458 0 017.459 7.459v31.733zm103.762 95.68a7.458 7.458 0 01-7.459 7.459h-20.548a7.458 7.458 0 01-7.459-7.459 7.458 7.458 0 017.459-7.459h13.089v-6.969h-13.089a7.458 7.458 0 01-7.459-7.459 7.458 7.458 0 017.459-7.459h13.089v-7.415h-13.089c-4.12 0-7.459-3.339-7.459-7.459s3.339-7.459 7.459-7.459h20.548a7.458 7.458 0 017.459 7.459v44.22z"/></svg>