<svg xmlns="http://www.w3.org/2000/svg" viewBox="0 0 297 297"><path d="M277.47 49.459c-13.551-13.78-33.892-21.064-58.824-21.064-30.677 0-57.294 17.727-70.144 43.475-12.85-25.748-39.466-43.475-70.144-43.475-23.853 0-44.62 7.79-58.475 21.934C6.41 64.085-.458 83.648.024 106.902c.273 13.19 3.447 26.465 9.483 39.782h51.16l18.615-55.847a8.194 8.194 0 0115.546 0l33.193 99.58 12.71-38.131a8.194 8.194 0 017.773-5.602H287.38c5.831-12.691 9.37-26.022 9.602-39.815.411-24.51-6.154-43.826-19.512-57.41z"/><path d="M135.792 218.917a8.194 8.194 0 01-15.546 0l-33.193-99.58-12.71 38.131a8.194 8.194 0 01-7.773 5.602H18.377c12.35 19.664 30.885 39.377 55.545 58.996 35.138 27.955 69.518 44.986 70.965 45.697a8.183 8.183 0 007.27-.019c4.537-2.26 88.196-44.559 126.254-104.674H154.407l-18.615 55.847z"/></svg>