<svg xmlns="http://www.w3.org/2000/svg" viewBox="0 0 297 297"><path d="M62.004 250.241L274.943 99.372 204.706 1.04a2.48 2.48 0 00-2.942-.862l-97.345 38.938a2.481 2.481 0 00-1.56 2.305V68.5l39.402 40.298c3.834 3.922 3.764 10.209-.158 14.044a9.903 9.903 0 01-6.942 2.83 9.9 9.9 0 01-7.102-2.988l-25.2-25.773v16.308c0 2.089-.296 4.178-.852 6.194l31.859 35.566c3.66 4.085 3.315 10.363-.771 14.022a9.892 9.892 0 01-6.623 2.534 9.904 9.904 0 01-7.4-3.305l-26.295-29.355-7.504 15.008 22.464 27.98c3.434 4.277 2.75 10.527-1.527 13.961a9.887 9.887 0 01-6.211 2.187 9.913 9.913 0 01-7.75-3.713l-16.752-20.865-6.927 13.853a21.062 21.062 0 01-12.26 10.635l-33.77 11.256a24.872 24.872 0 00-17.027 23.625v17.44h56.491z"/><path d="M284.756 113.11L69.572 265.57a8.441 8.441 0 01-4.88 1.554H5.514v5.465c0 13.46 10.95 24.411 24.411 24.411h46.619a30.974 30.974 0 0018.331-5.96l184.008-133.824c13.564-9.865 16.668-28.993 6.919-42.641l-1.046-1.465z"/></svg>