<svg id="Layer_1" enable-background="new 0 0 512 512" height="512" viewBox="0 0 512 512" width="512" xmlns="http://www.w3.org/2000/svg"><g><path d="m60.055 414.087h391.89c30.799-40.964 49.057-91.893 49.057-147.089 0-135.311-109.691-245.002-245.002-245.002s-245.002 109.691-245.002 245.002c0 55.197 18.258 106.126 49.057 147.089z" fill="#92c357"/><path d="m336.295 50.621c-15.435-36.294-48.372-47.205-73.886-49.871l.093.234s7.998 15.266-10.252 27.516-6.773 25.71-.258 32.226c6.516 6.516 1.12 54.06-9.594 64.774-3.42 3.42-7.694 7.098-12.608 10.714h108.441c5.605-22.854 10.182-57.098-1.936-85.593z" fill="#2a428c"/><path d="m244.399 125.5c10.714-10.714 16.109-58.258 9.594-64.774-6.516-6.516-17.993-19.976.257-32.226s10.252-27.516 10.252-27.516c-14.121-1.705-26.237-.82-32.306-.123-1.774.204-2.664 2.227-1.655 3.7 10.13 14.788-29.556 1.39-51.126 46.636-13.671 28.676-10.236 62.438-5.238 85.018h57.615c4.913-3.617 9.187-7.296 12.607-10.715z" fill="#1c2e7a"/><path d="m301.197 232.643c-4.565 5.318-9.356 9.765-13.934 13.32-8.92 6.927-19.927 10.689-31.263 10.689-1.001 0-1.999-.04-2.994-.098l1.487 3.39c-.084 3.488-1.146 34.587-12.327 51.565-.602.006-1.497.041-2.57.143 4.919 5.401 10.365 10.877 16.406 16.355 26.459-23.998 41.629-47.969 50.112-65.672.23-.479.441-.946.663-1.42-4.024-8.776-5.29-19.835-5.58-28.272z" fill="#ffaa7b"/><path d="m254.675 256.624c-10.866-.281-21.367-4.005-29.938-10.661-4.578-3.555-9.37-8.003-13.935-13.32-.291 8.437-1.556 19.496-5.581 28.273.222.474.433.94.663 1.42 6.715 14.013 17.626 31.953 35.005 50.724 1.276-.076 2.07-.042 2.07-.042 12.625-18.316 13.041-53.375 13.041-53.375z" fill="#fc9460"/><path d="m328.433 415.608c35.426-1.828 79.587-5.158 122.462-11.227-.121-2.193-.176-4.39-.148-6.588.35-27.034-5.117-95.138-68.556-100.325-5.833-.477-8.935-2.739-15.809-6.615-11.242-6.339-22.612-11.592-34.512-15.713-1.074 2.232-2.221 4.508-3.437 6.82z" fill="#ff4155"/><path d="m183.566 415.608v-133.636c-1.219-2.317-2.364-4.595-3.44-6.831-11.898 4.12-23.267 9.373-34.508 15.711-6.874 3.876-9.976 6.138-15.809 6.615-63.439 5.186-68.907 73.29-68.556 100.324.028 2.198-.027 4.395-.148 6.588 42.875 6.07 87.035 9.401 122.461 11.229z" fill="#e80054"/><path d="m161.055 443.595c-25.527-1.649-53.984-4.067-82.455-7.615 17.237 18.09 37.221 33.532 59.27 45.691z" fill="#fc9460"/><path d="m351.319 443.571 22.811 38.101c22.049-12.159 42.034-27.601 59.27-45.691-28.333 3.53-56.65 5.941-82.081 7.59z" fill="#ffaa7b"/><path d="m450.828 403.09c-26.994 3.833-54.428 6.572-79.862 8.532v31.881c19.516-1.504 40.212-3.468 60.982-6.032 7.137-7.365 13.823-15.17 19.997-23.383-.577-3.643-.963-7.313-1.117-10.998z" fill="#e9efff"/><path d="m141 411.619c-25.424-1.959-52.845-4.698-79.827-8.529-.154 3.685-.541 7.355-1.117 10.998 6.175 8.213 12.86 16.018 19.997 23.383 20.758 2.563 41.441 4.526 60.948 6.029v-31.881z" fill="#d3dcfb"/><path d="m341.526 133.317c-3.535-3.24-11.439-1.598-14.484.386.667 4.154.705 8.404.129 12.6l-3.593 26.171c0 2.109-.066 4.179-.189 6.213 8.762 2.643 13.976-5.223 14.709-10.622.315-2.324.832-4.614 1.547-6.849 2.331-7.278 10.739-19.781 1.881-27.899z" fill="#ffaa7b"/><path d="m170.474 133.317c3.535-3.24 11.44-1.598 14.485.386-.667 4.154-.705 8.404-.129 12.6l3.593 26.171c0 2.109.067 4.179.189 6.213-8.762 2.643-13.976-5.223-14.709-10.622-.316-2.324-.832-4.614-1.547-6.849-2.332-7.278-10.74-19.781-1.882-27.899z" fill="#fc9460"/><path d="m322.628 119.356c-3.981-6.246-2.663-11.348-2.598-17.322 0 0 3.358-27.502-30.512-37.267-10.007-2.885-24.214-4.584-38.697-3.935-10.262 6.938-17.067 17.257-17.067 32.024 0 6.623 1.43 11.798-2.641 18.513-4.391 7.241-6.945 17.686-5.495 28.794l3.654 27.976c0 40.219 20.423 67.557 37.796 81.739 2.745 2.241 5.695 4.145 8.78 5.746 4.056-1.71 7.9-3.94 11.415-6.67 17.088-13.269 37.176-38.848 37.176-76.48l3.594-26.171c1.415-10.31-1.043-20.102-5.405-26.947z" fill="#ffc7ab"/><path d="m267.238 248.408c-17.088-13.949-37.176-40.838-37.176-80.398l-3.594-27.517c-1.427-10.925 1.086-21.199 5.405-28.321 4.005-6.605 2.598-11.695 2.598-18.21 0-15.805 7.913-26.441 19.522-33.235-29.807.644-62.022 10.969-62.022 41.309 0 6.197 1.407 11.039-2.598 17.322-4.319 6.775-6.831 16.548-5.405 26.941l3.594 26.176c0 37.632 20.088 63.211 37.176 76.48 8.919 6.926 19.926 10.688 31.262 10.688 7.48 0 14.813-1.648 21.501-4.752-3.632-1.722-7.082-3.887-10.263-6.483z" fill="#ffaa7b"/><g fill="#ff7186"><path d="m269.951 350.117.002-.002.003-.004z"/><path d="m334.428 274.144c-1.629-.934-3.23-1.913-4.814-2.918-9.614 20.775-25.486 45.764-51.671 70.432-1.978 2.094-7.517 7.954-7.913 8.375-.001.001 0 .001-.001.002l.001-.001c-.003.003-.006.007-.009.01-.001.001-.003.003-.004.004l.001-.001c-.013.014-.024.025-.034.036-.009.009-.019.02-.031.032-.013.013-.023.024-.03.032l.001-.001c-.002.002-.003.003-.004.005-.013.014-.016.017-.011.012-6.512 6.997-17.327 7.659-24.622 1.509-9.48-7.993-17.798-16.083-25.107-24.115-.084.591-.147 1.196-.184 1.817-5.126.124-22.05 1.4-33.445 12.494-7.001 6.815-10.551 16.061-10.551 27.477 0 13.864 1.346 31.125 3.087 49.842 27.421 2.826 55.867 4.165 76.913 4.165 33.938 0 87.241-3.415 124.85-11.197 1.69-9.61 3.68-19.337 6.022-29.131 14.895-62.291-31.026-96.596-52.444-108.88z"/></g><path d="m177.5 369.345c0-39.655 43.952-38.479 43.952-38.479 0-.638.029-1.249.077-1.842-18.902-20.442-31.188-40.565-39.158-57.789-1.579 1.001-3.176 1.977-4.799 2.909-21.419 12.284-67.339 46.589-52.444 108.879 2.342 9.793 4.333 19.521 6.022 29.131 14.654 3.032 31.879 5.413 49.459 7.187-1.756-18.84-3.109-36.105-3.109-49.996z" fill="#ff4155"/><path d="m256 422.041s-36.511-.001-77.031-4.14c.612 6.625 1.275 13.434 1.949 20.351 2.068 21.214 4.185 42.926 5.297 63.655 22.117 6.564 45.538 10.093 69.785 10.093 42.837 0 83.098-11.005 118.132-30.325 1.359-25.45 3.562-51.864 6.965-70.907-53.89 11.272-125.097 11.273-125.097 11.273z" fill="#f9a0b1"/><path d="m180.489 418.054c-16.532-1.651-33.801-3.984-49.586-7.286 3.402 19.043 5.606 45.457 6.965 70.906 15.656 8.634 32.359 15.601 49.867 20.674-1.484-27.967-4.789-57.749-7.246-84.294z" fill="#ff7186"/><ellipse cx="327.396" cy="370.704" fill="#e9efff" rx="19.745" ry="19.745" transform="matrix(.167 -.986 .986 .167 -92.785 631.583)"/><path d="m255.119 326.582c6.522 5.972 13.763 11.949 21.8 17.831 27.416-25.323 43.908-51.096 53.823-72.478-6.603-4.091-12.818-8.779-18.508-14.076l-.073-.068c-.013-.012-.026-.024-.039-.036-1.922-1.778-5.043-1.082-6.127 1.302-.464 1.021-.946 2.055-1.448 3.103-8.313 17.347-23.246 40.907-49.428 64.422z" fill="#e9efff"/><path d="m241.56 311.522c-3.231.104-11.06.908-16.392 6.01-3.13 2.993-4.861 6.95-5.165 11.773 7.159 7.794 15.268 15.636 24.461 23.385 7.815 6.588 19.441 5.846 26.405-1.636l7.007-7.53.011-.004c-14.537-10.54-26.494-21.403-36.327-31.998z" fill="#d3dcfb"/><path d="m207.453 262.161c-.502-1.048-.984-2.082-1.449-3.103-1.083-2.384-4.205-3.08-6.127-1.302-.013.012-.026.024-.039.036l-.073.068c-5.69 5.297-11.906 9.986-18.51 14.077 8.148 17.572 20.749 38.112 40.196 58.929 0-18.801 21.507-17.848 21.507-17.848l.001-.001c-17.77-18.806-28.797-36.855-35.506-50.856z" fill="#bec8f7"/><path d="m199.525 381.576h-22.025c-3.378 0-6.115-2.738-6.115-6.116s2.738-6.115 6.115-6.115h22.025c3.378 0 6.115 2.738 6.115 6.115 0 3.378-2.738 6.116-6.115 6.116z" fill="#fcf2f2"/><g fill="#b4d667"><path d="m141 124c7.386-34.215-5.033-52.861-18.007-62.778-67.395 43.651-111.995 119.501-111.995 205.776 0 26.831 4.325 52.648 12.297 76.808 21.787-48.781 68.56-62.305 107.608-84.163 74.319-41.601-2.557-77.027 10.097-135.643z"/><path d="m371 124c-7.386-34.215 5.033-52.861 18.007-62.778 67.395 43.652 111.995 119.502 111.995 205.776 0 26.831-4.325 52.648-12.297 76.808-21.787-48.781-68.56-62.305-107.608-84.163-74.319-41.601 2.557-77.027-10.097-135.643z"/></g></g></svg>